<svg xmlns="http://www.w3.org/2000/svg" width="1234.547" height="508">
  <path fill="#656263" d="M597.779 110.324V35.616h10.182v74.708H597.78M661.748 110.324V74.796c0-7.748-2.103-12.285-9.408-12.285-9.076 0-15.605 9.186-15.605 21.361v26.452h-9.962V55.316h9.63c0 3.21-.222 8.301-.886 11.51l.222.113c3.209-7.638 9.961-12.73 19.368-12.73 12.617 0 16.601 7.859 16.601 17.599v38.516h-9.96M723.17 111.319c-4.095 0-8.19-.331-11.622-.995l.332-8.855c3.432 1.107 7.859 1.882 12.064 1.882 7.305 0 12.285-3.32 12.285-8.412 0-12.284-25.566-4.759-25.566-24.127 0-9.297 7.637-16.49 22.025-16.49 3.32 0 7.193.442 10.515 1.106l-.222 8.3c-3.432-1.107-7.416-1.77-11.068-1.77-7.305 0-10.957 3.098-10.957 7.858 0 12.063 25.677 5.533 25.677 24.016 0 9.961-8.854 17.487-23.464 17.487M796.765 110.324c0-3.21.332-8.301.887-11.51l-.221-.111c-3.211 7.636-9.962 12.728-19.37 12.728-12.617 0-16.49-7.859-16.49-17.599V55.316h9.85v35.528c0 7.748 2.214 12.285 9.407 12.285 9.076 0 15.716-9.186 15.716-21.36V55.316h9.85v55.008h-9.629M850.22 62.51c-9.96 0-15.052 11.622-15.052 21.251v18.151c2.877.885 5.977 1.328 9.74 1.328 10.515 0 17.487-6.31 17.487-22.135 0-11.844-3.874-18.594-12.175-18.594zm-5.755 48.478c-3.43 0-6.088-.112-9.297-.664v27.336h-9.96V55.316h9.628c0 3.1-.221 8.08-.885 11.179l.221.11c3.099-7.636 9.74-12.284 18.483-12.284 12.838 0 20.144 9.075 20.144 25.898 0 19.59-10.515 30.769-28.334 30.769M911.977 62.51c-9.961 0-15.052 11.622-15.052 21.251v18.151c2.878.885 5.976 1.328 9.739 1.328 10.515 0 17.488-6.31 17.488-22.135 0-11.844-3.875-18.594-12.175-18.594zm-5.756 48.478c-3.43 0-6.086-.112-9.296-.664v27.336h-9.961V55.316h9.63c0 3.1-.222 8.08-.886 11.179l.221.11c3.099-7.636 9.739-12.284 18.483-12.284 12.839 0 20.143 9.075 20.143 25.898 0 19.59-10.514 30.769-28.334 30.769M969.527 62.621c-7.97 0-15.495 6.088-15.495 19.7 0 13.282 5.423 20.587 15.495 20.587 8.189 0 15.273-6.42 15.273-20.475 0-12.506-5.092-19.812-15.273-19.812zm-1.218 48.698c-14.941 0-24.681-8.632-24.681-28 0-16.159 10.183-28.998 26.784-28.998 14.056 0 24.792 7.747 24.792 27.558 0 16.602-10.625 29.44-26.895 29.44M1036.152 64.06c-11.621-1.992-17.156 6.53-17.156 24.128v22.136h-9.96V55.316h9.628c0 3.432-.332 8.523-1.217 13.06h.221c2.324-7.636 7.97-15.273 18.927-14.055l-.443 9.739M1067.123 111.21c-11.29 0-14.72-4.65-14.72-16.493V63.064h-11.29v-7.748h11.29V37.497l9.961-2.766v20.585h15.384v7.748h-15.384v28.112c0 9.076 1.66 11.51 7.857 11.51 2.546 0 5.314-.442 7.527-.995v8.412c-3.099.664-7.084 1.106-10.625 1.106M1137.828 62.621c-7.968 0-15.495 6.088-15.495 19.7 0 13.282 5.424 20.587 15.495 20.587 8.19 0 15.273-6.42 15.273-20.475 0-12.506-5.09-19.812-15.273-19.812zm-1.217 48.698c-14.942 0-24.68-8.632-24.68-28 0-16.159 10.181-28.998 26.782-28.998 14.056 0 24.792 7.747 24.792 27.558 0 16.602-10.625 29.44-26.894 29.44M1209.54 38.161c-2.547-.885-5.424-1.217-8.08-1.217-7.859 0-11.29 4.428-11.29 14.167v4.205h15.274v7.748h-15.273v47.26h-9.962v-47.26h-11.288v-7.748h11.288v-4.095c0-15.162 7.416-22.356 21.14-22.356 3.099 0 6.087.332 9.076.996l-.885 8.3"/>
  <path fill="#2d9edf" d="M653.683 306.205c-40.615 0-65.456-22.682-65.456-67.181v-86.399h33.269v85.536c0 24.623 12.308 37.372 32.612 37.372 20.308 0 32.624-12.313 32.624-36.29v-86.618h33.261v85.319c0 45.793-25.694 68.261-66.31 68.261M847.005 303.828l-73.232-96.12v96.12h-32.826V152.625h30.668l70.857 93.096v-93.096h32.83v151.203h-28.297M208.036 484.277h-28.945l-34.13-98.93-34.129 98.93H81.887L30.26 332.02h35.642l31.322 102.365 33.911-102.801h28.516l33.908 102.8 31.323-102.364h34.778l-51.625 152.258M379.98 407.598c0-25.92-19.005-47.511-45.792-47.511-26.787 0-45.363 21.16-45.363 47.077v.434c0 25.918 19.01 47.52 45.795 47.52 26.784 0 45.36-21.17 45.36-47.093zm-45.792 78.193c-46.657 0-80.14-34.779-80.14-77.766v-.427c0-42.983 33.915-78.171 80.572-78.171 46.657 0 80.139 34.757 80.139 77.737v.434c0 42.985-33.915 78.193-80.571 78.193M547.607 483.2v-98.714l-42.554 64.583h-.861l-42.124-63.936V483.2h-32.616V332.019h35.856l39.745 63.914L544.8 332.02h35.856V483.2h-33.05M606.365 483.2V332.019h114.063v29.577h-81.013v30.661h71.273v29.596h-71.273v31.754h82.096V483.2H606.365M846.573 483.2l-73.233-96.125V483.2h-32.83V332.019h30.667l70.856 93.072v-93.072h32.827V483.2h-28.287"/>
  <path fill="#75bcea" d="M1052.519 152.052H994.04v38.517c17.808 4.459 37.595 7.354 58.478 8.267v-46.784M969.861 183.121v-31.069H927.4v7.633c6.386 5.38 14.254 10.516 23.384 15.159 5.868 2.981 12.265 5.748 19.078 8.277M1052.519 222.927c-20.582-.904-40.282-3.424-58.478-7.547v50.813c17.83 9.176 37.583 15.027 58.478 16.942v-60.208M969.861 250.863v-42.127c-15.886-5.215-30.153-11.792-42.462-19.516v12.555a161.135 161.135 0 0 0 42.462 49.088M993.781 435.461v-27.278h58.738v-27.249h-58.743v-27.278h58.743v-46.232c-49.939-3.904-94.283-27.719-125.12-63.545v238.906h125.12v-47.324H993.78"/>
  <path fill="#2d9edf" d="M1081.708 198.883c19.947-.859 38.852-3.586 55.99-7.739v-39.092h-55.99v46.83M1194.41 196.39c-9.877 5.005-20.853 9.322-32.534 13.03v43.24c18.464-13.577 33.841-31.035 45.077-51.148v-12.268c-3.99 2.5-8.141 4.905-12.544 7.145M1137.719 267.367c0-.055-.02-.112-.02-.156v-51.256c-17.48 3.825-36.312 6.2-55.991 7.024v60.153c19.947-1.855 38.852-7.297 56.01-15.765M1161.876 152.052v31.883c18.587-6.639 34.05-15.016 45.077-24.252v-7.631h-45.077M1081.708 307.424v46.232h56.301v27.278h-56.301v27.249h56.307v27.278h-56.307v47.325h125.245V243.764c-30.858 35.87-75.234 59.725-125.245 63.66"/>
</svg>
